<?xml version="1.0" encoding="UTF-8" standalone="no"?>
<!-- Created with Inkscape (http://www.inkscape.org/) -->

<svg
   xmlns:dc="http://purl.org/dc/elements/1.1/"
   xmlns:cc="http://creativecommons.org/ns#"
   xmlns:rdf="http://www.w3.org/1999/02/22-rdf-syntax-ns#"
   xmlns:svg="http://www.w3.org/2000/svg"
   xmlns="http://www.w3.org/2000/svg"
   xmlns:sodipodi="http://sodipodi.sourceforge.net/DTD/sodipodi-0.dtd"
   xmlns:inkscape="http://www.inkscape.org/namespaces/inkscape"
   width="210mm"
   height="297mm"
   viewBox="0 0 210 297"
   version="1.1"
   id="svg8"
   sodipodi:docname="undraw_tela_sem_modelo.svg"
   inkscape:version="0.92.4 (5da689c313, 2019-01-14)"
   inkscape:export-filename="C:\Users\gabriel.costa\Desktop\sem_modelo.png"
   inkscape:export-xdpi="144"
   inkscape:export-ydpi="144">
  <defs
     id="defs2" />
  <sodipodi:namedview
     id="base"
     pagecolor="#ffffff"
     bordercolor="#666666"
     borderopacity="1.0"
     inkscape:pageopacity="0.0"
     inkscape:pageshadow="2"
     inkscape:zoom="0.7"
     inkscape:cx="396.50992"
     inkscape:cy="632.7401"
     inkscape:document-units="mm"
     inkscape:current-layer="g1624"
     showgrid="false"
     inkscape:window-width="1920"
     inkscape:window-height="1147"
     inkscape:window-x="2552"
     inkscape:window-y="373"
     inkscape:window-maximized="1" />
  <metadata
     id="metadata5">
    <rdf:RDF>
      <cc:Work
         rdf:about="">
        <dc:format>image/svg+xml</dc:format>
        <dc:type
           rdf:resource="http://purl.org/dc/dcmitype/StillImage" />
        <dc:title></dc:title>
      </cc:Work>
    </rdf:RDF>
  </metadata>
  <g
     inkscape:label="Camada 1"
     inkscape:groupmode="layer"
     id="layer1">
    <g
       id="g1624"
       transform="matrix(0.26458333,0,0,0.26458333,16.538348,14.478992)">
      <flowRoot
         xml:space="preserve"
         id="flowRoot1626"
         style="fill:black;fill-opacity:1;stroke:none;font-family:sans-serif;font-style:normal;font-weight:normal;font-size:40px;line-height:1.25;letter-spacing:0px;word-spacing:0px"><flowRegion
           id="flowRegion1628"><rect
             id="rect1630"
             width="122.22845"
             height="82.832512"
             x="-148.49243"
             y="213.3824" /></flowRegion><flowPara
           id="flowPara1632"></flowPara></flowRoot>      <g
         id="g1686"
         transform="translate(-38.40946,47.370719)">
        <path
           inkscape:export-ydpi="111.23891"
           inkscape:export-xdpi="111.23891"
           style="fill:#2f2e41"
           inkscape:connector-curvature="0"
           d="m 927.17065,245.86427 c 26.72006,38.98517 20.80717,89.48769 20.80717,89.48769 0,0 -49.23467,-12.7049 -75.95473,-51.69006 -26.72006,-38.98516 -20.80718,-89.48769 -20.80718,-89.48769 0,0 49.23467,12.7049 75.95474,51.69006 z"
           transform="translate(-227.12124,-115.57973)"
           id="path1509" />
        <path
           inkscape:export-ydpi="111.23891"
           inkscape:export-xdpi="111.23891"
           style="fill:#8858ff;fill-opacity:1"
           inkscape:connector-curvature="0"
           d="m 907.945,253.30828 c 3.12667,47.15961 39.01681,83.17856 39.01681,83.17856 0,0 30.82085,-40.44184 27.69419,-87.60148 -3.12666,-47.15964 -39.01682,-83.17856 -39.01682,-83.17856 0,0 -30.82082,40.44187 -27.69418,87.60148 z"
           transform="translate(-227.12124,-115.57973)"
           id="path1511" />
        <path
           inkscape:export-ydpi="111.23891"
           inkscape:export-xdpi="111.23891"
           style="fill:#d0cde1"
           inkscape:connector-curvature="0"
           d="M 601.16721,116.56176 963.94182,298.9512 a 17.15473,17.15473 0 0 1 9.41008,16.48217 l -21.07709,312.20436 a 8.49961,8.49961 0 0 1 -12.31475,7.013 L 568.91284,445.287 587.962,124.17251 a 9.1232,9.1232 0 0 1 13.20521,-7.61075 z"
           transform="translate(-227.12124,-115.57973)"
           id="path1513" />
        <path
           inkscape:export-ydpi="111.23891"
           inkscape:export-xdpi="111.23891"
           style="fill:#3f3d56"
           inkscape:connector-curvature="0"
           d="m 605.34247,122.92382 353.86394,177.9095 a 16.73337,16.73337 0 0 1 9.17895,16.07732 L 947.826,621.44648 a 8.29085,8.29085 0 0 1 -12.01228,6.84077 L 573.88034,443.57476 592.46161,130.34764 a 8.89911,8.89911 0 0 1 12.88086,-7.42382 z"
           transform="translate(-227.12124,-115.57973)"
           id="path1515" />
        <path
           inkscape:export-ydpi="111.23891"
           inkscape:export-xdpi="111.23891"
           transform="translate(-227.12124,-115.57973)"
           style="fill:#ffffff"
           inkscape:connector-curvature="0"
           d="M 620.85055,146.55434 941.61776,307.824 a 15.1683,15.1683 0 0 1 8.32044,14.57362 l -18.63647,276.05277 a 7.5154,7.5154 0 0 1 -10.88877,6.201 L 592.33107,437.21494 609.17444,153.28381 a 8.06678,8.06678 0 0 1 11.67611,-6.72947 z"
           id="path1517" />
        <path
           inkscape:export-ydpi="111.23891"
           inkscape:export-xdpi="111.23891"
           style="fill:#d0cde1"
           inkscape:connector-curvature="0"
           d="M 289.86708,598.9106 653.105,781.84248 a 24.18508,24.18508 0 0 0 21.78584,-0.0284 L 943.60452,645.40645 c 3.15077,-3.15087 2.71071,-7.82029 1.70307,-11.326 a 25.229,25.229 0 0 0 -1.98686,-4.89647 l -36.61767,-19.25973 -307.87155,-153.60934 -18.39407,-9.7647 a 34.05929,34.05929 0 0 0 -31.63579,-0.12777 L 289.75342,580.985 a 10.05764,10.05764 0 0 0 0.11366,17.9256 z"
           transform="translate(-227.12124,-115.57973)"
           id="path1519" />
        <path
           inkscape:export-ydpi="111.23891"
           inkscape:export-xdpi="111.23891"
           style="opacity:0.1"
           inkscape:connector-curvature="0"
           d="M 289.86708,598.9106 653.105,781.84248 a 24.18508,24.18508 0 0 0 21.78584,-0.0284 L 943.60452,645.40645 c 3.15077,-3.15087 2.71071,-7.82029 1.70307,-11.326 L 677.39709,773.334 a 23.37,23.37 0 0 1 -21.19939,0.18164 L 284.4453,588.30848 a 10.01705,10.01705 0 0 0 5.42178,10.60212 z"
           transform="translate(-227.12124,-115.57973)"
           id="path1521" />
        <path
           inkscape:export-ydpi="111.23891"
           inkscape:export-xdpi="111.23891"
           style="opacity:0.1"
           inkscape:connector-curvature="0"
           d="M 634.63782,653.72083 517.00265,594.27572 a 16.52947,16.52947 0 0 0 -15.244,0.1735 l -68.24076,36.45739 a 4.88152,4.88152 0 0 0 0.10227,8.66427 l 119.941,60.48308 a 13.586,13.586 0 0 0 12.78587,-0.29411 L 634.86,661.161 a 4.20291,4.20291 0 0 0 -0.22218,-7.44017 z"
           transform="translate(-227.12124,-115.57973)"
           id="path1523" />
        <path
           transform="translate(-227.12124,-115.57973)"
           inkscape:export-ydpi="111.23891"
           inkscape:export-xdpi="111.23891"
           style="opacity:0.1"
           inkscape:connector-curvature="0"
           d="m 911.68665,643.779 -126.5861,67.24886 a 10.2967,10.2967 0 0 1 -9.47746,0.0954 l -357.66015,-180.87 a 6.08239,6.08239 0 0 1 0.0468,-10.879 l 123.6145,-61.18293 a 13.40423,13.40423 0 0 1 11.97733,0.0426 L 911.631,638.62577 a 2.90134,2.90134 0 0 1 0.0557,5.15323 z"
           id="path1525" />
        <path
           inkscape:export-ydpi="111.23891"
           inkscape:export-xdpi="111.23891"
           style="fill:#3f3d56"
           inkscape:connector-curvature="0"
           d="m 197.52692,331.54687 c 0,0 -28.38045,-12.36653 -41.71067,0.69684 -13.33022,13.06337 35.69057,8.76331 41.71067,-0.69684 z"
           id="path1533" />
        <path
           inkscape:export-ydpi="111.23891"
           inkscape:export-xdpi="111.23891"
           style="fill:#2f2e41"
           inkscape:connector-curvature="0"
           d="m 148.52136,272.89796 c 9.5374,-16.11528 28.4064,-16.86632 28.4064,-16.86632 0,0 18.38679,-2.35129 30.18179,22.19249 10.99389,22.87681 26.16686,44.96485 2.44273,50.32014 l -4.28527,-13.33766 -2.65381,14.33066 a 92.82684,92.82684 0 0 1 -10.15067,0.17348 c -25.40663,-0.82028 -49.6026,0.24 -48.82352,-8.877 1.03565,-12.11971 -4.29456,-32.42966 4.88235,-47.93579 z"
           id="path1535" />
        <path
           inkscape:export-ydpi="111.23891"
           inkscape:export-xdpi="111.23891"
           style="fill:#ffb8b8"
           inkscape:connector-curvature="0"
           d="m 135.17592,565.04059 c 0,0 12.0402,22.36036 19.78032,22.36036 7.74012,0 6.88011,14.62023 5.16008,18.06029 -1.72003,3.44006 -6.02009,11.18018 0.86,22.36036 2.40321,3.90523 1.97331,8.33511 0.39629,12.44665 -4.41861,11.52 -21.60692,8.02981 -21.05858,-4.2963 q 0.009,-0.20384 0.022,-0.41023 c 0.86,-13.76022 -6.0201,-35.26056 -12.90021,-40.42064 -6.88011,-5.16008 -12.90021,-18.92031 -12.90021,-18.92031 z"
           id="path1537" />
        <path
           inkscape:export-ydpi="111.23891"
           inkscape:export-xdpi="111.23891"
           style="fill:#ffb8b8"
           inkscape:connector-curvature="0"
           d="m 217.73724,559.88051 c 0,0 -12.04019,22.36036 -19.78031,22.36036 -7.74012,0 -6.88011,14.62023 -5.16009,18.06029 1.72002,3.44006 6.0201,11.18018 -0.86,22.36035 -2.40322,3.90524 -1.97332,8.33512 -0.39629,12.44666 4.41861,11.52 21.60692,8.02981 21.05857,-4.2963 q -0.009,-0.20384 -0.022,-0.41023 c -0.86,-13.76022 6.02009,-35.26056 12.9002,-40.42065 6.88011,-5.16009 12.90021,-18.9203 12.90021,-18.9203 z"
           id="path1539" />
        <path
           inkscape:export-ydpi="111.23891"
           inkscape:export-xdpi="111.23891"
           style="fill:#2f2e41"
           inkscape:connector-curvature="0"
           d="m 208.27709,449.79876 5.16008,11.18017 c 0,0 75.68121,24.9404 68.8011,54.18087 -6.88011,29.24047 -40.42064,74.82119 -45.58073,73.10117 -5.16009,-1.72002 -32.68052,-6.88011 -33.54053,-21.50035 -0.86001,-14.62024 19.78031,-40.42064 19.78031,-40.42064 l -28.38045,-25.80041 -41.29815,-0.86 -35.24307,26.66043 c 0,0 36.98059,32.68052 20.64033,45.58072 -16.34026,12.9002 -40.42065,21.50035 -43.8607,16.34027 -3.44005,-5.16008 -42.14067,-81.70131 -36.12058,-88.58142 6.02009,-6.88011 67.08106,-32.68054 67.08106,-32.68054 l 16.34026,-23.22037 63.641,-3.44006 z"
           id="path1541" />
        <path
           inkscape:export-ydpi="111.23891"
           inkscape:export-xdpi="111.23891"
           style="fill:#ffb8b8"
           inkscape:connector-curvature="0"
           d="m 192.79684,307.89649 c 0,0 -4.30007,28.38045 4.30007,31.82051 8.60014,3.44006 -17.20027,18.06027 -17.20027,18.06027 H 165.2764 l -9.46015,-19.78032 c 0,0 8.60014,-15.48025 3.44006,-30.10048 -5.16008,-14.62023 33.54053,2e-5 33.54053,2e-5 z"
           id="path1543" />
        <path
           inkscape:export-ydpi="111.23891"
           inkscape:export-xdpi="111.23891"
           style="opacity:0.1"
           inkscape:connector-curvature="0"
           d="m 192.79684,307.89649 c 0,0 -4.30007,28.38045 4.30007,31.82051 8.60014,3.44006 -17.20027,18.06027 -17.20027,18.06027 H 165.2764 l -9.46015,-19.78032 c 0,0 8.60014,-15.48025 3.44006,-30.10048 -5.16008,-14.62023 33.54053,2e-5 33.54053,2e-5 z"
           id="path1545" />
        <path
           inkscape:export-ydpi="111.23891"
           inkscape:export-xdpi="111.23891"
           style="fill:#d0cde1"
           inkscape:connector-curvature="0"
           d="m 198.81694,331.97688 c 0,0 -9.46018,10.32016 -11.18018,12.04019 -1.72,1.72003 -9.46015,11.18018 -25.80041,-2.58 -16.34026,-13.76018 -18.06029,2.58 -18.06029,2.58 v 103.20164 c 0,0 13.76022,-6.02009 24.9404,0 11.18018,6.02009 34.40055,-1.72 34.40055,-1.72 l 4.30007,-106.6417 z"
           id="path1547" />
        <path
           inkscape:export-ydpi="111.23891"
           inkscape:export-xdpi="111.23891"
           style="fill:#3f3d56"
           inkscape:connector-curvature="0"
           d="m 192.49976,331.97688 c 0,0 8.03717,-3.44006 14.91728,0 6.88011,3.44006 30.96049,20.64032 29.24046,28.38045 -1.72003,7.74013 -24.08038,61.921 -8.60013,87.7214 15.48025,25.8004 18.06032,32.68054 18.06032,32.68054 l -37.8406,-19.78032 c 0,0 -29.24047,-18.06028 -26.66043,-29.24046 2.58004,-11.18018 10.8831,-99.76161 10.8831,-99.76161 z"
           id="path1549" />
        <path
           inkscape:export-ydpi="111.23891"
           inkscape:export-xdpi="111.23891"
           style="fill:#3f3d56"
           inkscape:connector-curvature="0"
           d="m 158.38615,331.97688 c 0,0 -18.05014,1.72 -18.91016,3.44005 -0.86002,1.72005 -27.09043,9.03014 -25.3704,16.77027 1.72003,7.74013 25.3704,76.97123 15.05024,89.87143 -10.32016,12.9002 -27.52044,30.9605 -21.50035,32.68052 6.02009,1.72002 16.34027,-2.58 26.66043,0 10.32016,2.58 34.40055,-18.9203 31.82051,-42.14067 -2.58004,-23.22037 -0.0203,-94.60151 -7.75027,-100.6216 z"
           id="path1551" />
        <path
           inkscape:export-ydpi="111.23891"
           inkscape:export-xdpi="111.23891"
           style="fill:#ffb8b8"
           inkscape:connector-curvature="0"
           d="m 201.39698,496.2395 v 8.60013 c 0,0 4.30007,19.78032 -9.46015,18.92031 -13.76022,-0.86001 -5.16008,-24.08039 -5.16008,-24.08039 l 0.86,-7.74012 z"
           id="path1553" />
        <path
           inkscape:export-ydpi="111.23891"
           inkscape:export-xdpi="111.23891"
           style="fill:#ffb8b8"
           inkscape:connector-curvature="0"
           d="m 162.69636,497.09951 c 0,0 9.46015,19.78032 0,21.50034 -9.46015,1.72002 -16.34026,-11.18017 -16.34026,-14.62023 0,-3.44006 16.34026,-6.88011 16.34026,-6.88011 z"
           id="path1555" />
        <ellipse
           inkscape:export-ydpi="111.23891"
           inkscape:export-xdpi="111.23891"
           style="fill:#ffb8b8"
           cx="150.22617"
           cy="296.28629"
           rx="1.72003"
           ry="3.4400499"
           id="ellipse1557" />
        <ellipse
           inkscape:export-ydpi="111.23891"
           inkscape:export-xdpi="111.23891"
           style="fill:#ffb8b8"
           cx="200.96696"
           cy="296.28629"
           rx="1.72003"
           ry="3.4400499"
           id="ellipse1559" />
        <path
           inkscape:export-ydpi="111.23891"
           inkscape:export-xdpi="111.23891"
           style="fill:#3f3d56"
           inkscape:connector-curvature="0"
           d="m 135.17592,343.15705 c 0,0 -21.50034,0 -20.64033,8.60014 0.86001,8.60014 29.24047,156.5225 29.24047,156.5225 0,0 12.04019,-11.18018 22.36036,-8.60014 z"
           id="path1561" />
        <path
           inkscape:export-ydpi="111.23891"
           inkscape:export-xdpi="111.23891"
           style="fill:#3f3d56"
           inkscape:connector-curvature="0"
           d="m 218.59725,345.73709 c 0,0 21.50035,4.30007 21.50035,17.20028 0,12.90021 -30.9605,136.74218 -35.26056,136.74218 -4.30006,0 -20.64033,-2.58 -20.64033,-6.88011 0,-4.30011 34.40054,-147.06235 34.40054,-147.06235 z"
           id="path1563" />
        <path
           inkscape:export-ydpi="111.23891"
           inkscape:export-xdpi="111.23891"
           style="opacity:0.2"
           inkscape:connector-curvature="0"
           d="m 213.86718,371.1075 -19.35031,75.67348 c 0,0 9.03014,-66.21333 19.35031,-75.67348 z"
           id="path1565" />
        <path
           inkscape:export-ydpi="111.23891"
           inkscape:export-xdpi="111.23891"
           style="opacity:0.2"
           inkscape:connector-curvature="0"
           d="m 138.60135,360.47447 19.57041,98.93907 c 0,0 -6.25483,-93.23184 -19.57041,-98.93907 z"
           id="path1567" />
        <circle
           inkscape:export-ydpi="111.23891"
           inkscape:export-xdpi="111.23891"
           style="fill:#ffb8b8"
           cx="175.59656"
           cy="296.71631"
           r="24.940399"
           id="circle1569" />
        <polygon
           inkscape:export-ydpi="111.23891"
           inkscape:export-xdpi="111.23891"
           transform="translate(58,18)"
           style="fill:#2f2e41"
           points="94.738,253.344 113.38,243.58 139.123,247.574 144.449,271.098 131.191,270.589 127.487,261.946 127.487,270.446 121.369,270.211 117.818,256.451 115.599,271.098 93.85,270.655 "
           id="polygon1571" />
        <rect
           inkscape:export-ydpi="111.23891"
           inkscape:export-xdpi="111.23891"
           style="fill:#ffffff"
           x="656.35498"
           y="160.2919"
           width="1.41951"
           height="74.900162"
           transform="rotate(-62.93456,449.07866,325.50397)"
           id="rect1577" />
        <rect
           inkscape:export-ydpi="111.23891"
           inkscape:export-xdpi="111.23891"
           style="fill:#ffffff"
           x="651.35498"
           y="172.2919"
           width="1.41951"
           height="74.900162"
           transform="rotate(-62.93456,444.07866,337.50397)"
           id="rect1579" />
        <flowRoot
           inkscape:export-ydpi="111.23891"
           inkscape:export-xdpi="111.23891"
           transform="matrix(1.0930128,0.55387285,-0.20244426,1.7222398,426.32048,-23.804419)"
           style="font-style:normal;font-weight:normal;font-size:40px;line-height:1.25;font-family:sans-serif;letter-spacing:0px;word-spacing:0px;fill:#7019ff;fill-opacity:1;stroke:none"
           id="flowRoot1636"
           xml:space="preserve"><flowRegion
             style="fill:#7019ff;fill-opacity:1"
             id="flowRegion1638"><rect
               style="fill:#7019ff;fill-opacity:1"
               y="68.93058"
               x="-263.64981"
               height="185.86807"
               width="786.90881"
               id="rect1640" /></flowRegion><flowPara
             style="font-style:normal;font-variant:normal;font-weight:normal;font-stretch:normal;font-size:45.31652451px;font-family:Gitaluevo;-inkscape-font-specification:Gitaluevo;text-align:center;text-anchor:middle;fill:#7019ff;fill-opacity:1"
             id="flowPara1642">Tela sem modelo</flowPara><flowPara
             style="font-style:normal;font-variant:normal;font-weight:normal;font-stretch:normal;font-size:45.31652451px;font-family:Gitaluevo;-inkscape-font-specification:Gitaluevo;text-align:center;text-anchor:middle;fill:#7019ff;fill-opacity:1"
             id="flowPara1644">Click em EDITAR</flowPara></flowRoot>      </g>
    </g>
    <rect
       style="opacity:0;fill:#8858ff;fill-opacity:1;stroke:none;stroke-width:0.47074765;stroke-miterlimit:4;stroke-dasharray:none;stroke-opacity:1"
       id="rect1648"
       width="211.66667"
       height="211.66667"
       x="7.0303574"
       y="9.6624899" />
  </g>
</svg>
