<?xml version="1.0" encoding="UTF-8" standalone="no"?>
<svg
   xmlns:dc="http://purl.org/dc/elements/1.1/"
   xmlns:cc="http://creativecommons.org/ns#"
   xmlns:rdf="http://www.w3.org/1999/02/22-rdf-syntax-ns#"
   xmlns:svg="http://www.w3.org/2000/svg"
   xmlns="http://www.w3.org/2000/svg"
   xmlns:sodipodi="http://sodipodi.sourceforge.net/DTD/sodipodi-0.dtd"
   xmlns:inkscape="http://www.inkscape.org/namespaces/inkscape"
   width="800"
   height="800"
   viewBox="0 0 800.00001 800.00001"
   version="1.1"
   id="svg8"
   inkscape:version="1.0.2 (1.0.2+r75+1)"
   sodipodi:docname="arte6.svg"
   inkscape:export-filename="/home/gustavu92/Desktop/rapiart_app/flask_app/static/modelos/arte6/arte6_camada0.png"
   inkscape:export-xdpi="96"
   inkscape:export-ydpi="96">
  <defs
     id="defs2" />
  <sodipodi:namedview
     id="base"
     pagecolor="#ffffff"
     bordercolor="#666666"
     borderopacity="1.0"
     inkscape:pageopacity="0.0"
     inkscape:pageshadow="2"
     inkscape:zoom="0.7"
     inkscape:cx="321.85914"
     inkscape:cy="408.4631"
     inkscape:document-units="px"
     inkscape:current-layer="layer1"
     inkscape:document-rotation="0"
     showgrid="false"
     units="px"
     inkscape:window-width="1608"
     inkscape:window-height="986"
     inkscape:window-x="72"
     inkscape:window-y="27"
     inkscape:window-maximized="1"
     inkscape:snap-page="true"
     inkscape:snap-global="false" />
  <metadata
     id="metadata5">
    <rdf:RDF>
      <cc:Work
         rdf:about="">
        <dc:format>image/svg+xml</dc:format>
        <dc:type
           rdf:resource="http://purl.org/dc/dcmitype/StillImage" />
        <dc:title />
      </cc:Work>
    </rdf:RDF>
  </metadata>
  <g
     inkscape:label="Layer 1"
     inkscape:groupmode="layer"
     id="layer1">
    <path
       style="fill:#111111;fill-opacity:1;stroke:#000000;stroke-width:0.999996px;stroke-linecap:butt;stroke-linejoin:miter;stroke-opacity:1"
       d="m 1e-6,513.5272 V 800 H 800 V 558.56751 Z"
       id="path2443"
       sodipodi:nodetypes="ccccc" />
    <rect
       style="fill:#008000;stroke-width:0;stop-color:#000000"
       id="caixa_texto_nomeempresa"
       width="760.79907"
       height="57.912018"
       x="19.329481"
       y="584.30389" />
    <rect
       style="fill:#ffff00;stroke-width:0;stop-color:#000000"
       id="caixa_texto_telefone"
       width="191.52916"
       height="22.718895"
       x="96.747452"
       y="690.33936" />
    <text
       xml:space="preserve"
       style="font-size:25px;line-height:1.25;font-family:'Caviar Dreams';-inkscape-font-specification:'Caviar Dreams';letter-spacing:-0.499799px;word-spacing:0px;fill:#ff5c02;fill-opacity:1;stroke-width:0.999998"
       x="98.192787"
       y="711.53766"
       id="texto_telefone"><tspan
         sodipodi:role="line"
         id="tspan2445"
         x="98.192787"
         y="711.53766"
         style="font-style:normal;font-variant:normal;font-weight:normal;font-stretch:normal;font-size:25px;font-family:'LEMON MILK';-inkscape-font-specification:'LEMON MILK';stroke-width:0.999998">(17) 99775-8081</tspan></text>
    <g
       id="g2362"
       transform="matrix(0.12156228,0,0,0.12156228,26.683478,697.18484)"
       style="stroke-width:8.22624">
      <path
         d="m 198.06857,181.19286 20.25,-74 a 142.49,142.49 0 0 1 -19.06,-71.37 c 0,-78.71 64.07,-142.75 142.76,-142.75 a 142.79,142.79 0 0 1 142.77,142.89 c 0,78.71 -64.08,142.76 -142.76,142.76 h -0.06 a 142.61,142.61 0 0 1 -68.22,-17.38 z m 79.18,-45.7 4.34,2.57 a 118.49,118.49 0 0 0 60.39,16.54 h 0.05 c 65.4,0 118.63,-53.23 118.66,-118.66 a 118.66,118.66 0 1 0 -219.18,63.05 l 2.82,4.49 -12,43.79 z"
         fill="#ffffff"
         id="path2336"
         style="stroke-width:7.64518" />
      <path
         d="m 413.94857,69.90286 c -0.89,-1.49 -3.27,-2.38 -6.84,-4.17 -3.57,-1.79 -21.1,-10.41 -24.37,-11.59 -3.27,-1.18 -5.65,-1.79 -8,1.79 -2.35,3.58 -9.21,11.61 -11.29,14 -2.08,2.39 -4.16,2.68 -7.73,0.89 -3.57,-1.79 -15.06,-5.55 -28.68,-17.71 -10.61,-9.46 -17.77,-21.14 -19.84,-24.71 -2.07,-3.57 -0.22,-5.5 1.56,-7.28 1.61,-1.6 3.57,-4.17 5.35,-6.25 a 24.49,24.49 0 0 0 3.57,-6 6.58,6.58 0 0 0 -0.3,-6.25 c -0.89,-1.79 -8,-19.34 -11,-26.48 -2.89,-7 -5.84,-6 -8,-6.13 -2.16,-0.13 -4.46,-0.12 -6.84,-0.12 a 13.11,13.11 0 0 0 -9.51,4.46 c -3.27,3.57 -12.48,12.2 -12.48,29.76 0,17.56 12.78,34.52 14.57,36.9 1.79,2.38 25.15,38.41 60.94,53.86 a 204.73,204.73 0 0 0 20.34,7.52 48.89,48.89 0 0 0 22.46,1.41 c 6.86,-1 21.11,-8.63 24.08,-17 2.97,-8.37 2.9,-15.41 2.01,-16.9 z"
         fill="#ffffff"
         fill-rule="evenodd"
         id="path2338"
         style="stroke-width:7.64518" />
    </g>
    <rect
       style="fill:#008000;stroke-width:0;stop-color:#000000"
       id="caixa_texto_endereco"
       width="775.90509"
       height="28.236578"
       x="9.2302094"
       y="747.6405" />
    <rect
       style="fill:#ffff00;stroke-width:0;stop-color:#000000"
       id="caixa_texto_email"
       width="325.1582"
       height="25.914957"
       x="389.52863"
       y="688.74133" />
    <text
       xml:space="preserve"
       style="font-size:25px;line-height:1.25;font-family:'Caviar Dreams';-inkscape-font-specification:'Caviar Dreams';letter-spacing:-0.499799px;word-spacing:0px;fill:#ff5c02;fill-opacity:1;stroke-width:0.999998"
       x="389.99503"
       y="709.10846"
       id="texto_email"><tspan
         sodipodi:role="line"
         id="tspan2445-70"
         x="389.99503"
         y="709.10846"
         style="font-style:normal;font-variant:normal;font-weight:normal;font-stretch:normal;font-size:25px;font-family:'LEMON MILK';-inkscape-font-specification:'LEMON MILK';stroke-width:0.999998">gustavu92@gmail.com</tspan></text>
    <path
       d="m 373.48166,689.4826 h -29.91941 c -2.04104,0 -3.70137,1.66026 -3.70137,3.70137 v 17.02964 c 0,2.04104 1.66033,3.70138 3.70137,3.70138 h 29.91934 c 2.04104,0 3.70129,-1.66034 3.70129,-3.70138 v -17.02964 c 10e-5,-2.04111 -1.66018,-3.70137 -3.70122,-3.70137 z m 1.23379,3.70137 v 17.02964 c 0,0.19466 -0.0548,0.3724 -0.13559,0.5362 l -8.72269,-8.72336 8.85578,-8.85579 c 0,0.005 0.003,0.008 0.003,0.0133 z m -32.38699,17.02956 v -17.02956 c 0,-0.005 0.002,-0.008 0.002,-0.0132 l 8.85579,8.85578 -8.72329,8.72321 c -0.0802,-0.16381 -0.13499,-0.34146 -0.13499,-0.5362 z m 16.57429,-4.72174 c -0.2036,0.20352 -0.55799,0.20352 -0.76158,0 l -13.54092,-13.5416 h 27.84402 z m -5.97135,-1.72053 3.46512,3.46519 c 0.5681,0.56804 1.32295,0.88068 2.12543,0.88068 0.80242,0 1.55733,-0.31264 2.12545,-0.88068 l 3.46526,-3.46519 7.67547,7.67614 h -26.53295 z"
       id="path2536"
       style="fill:#ffffff;stroke-width:1.65158" />
    <rect
       style="fill:#008000;stroke-width:0;stop-color:#000000"
       id="caixa_imagem_logo"
       width="536.74017"
       height="376.00433"
       x="131.62991"
       y="88.657936" />
    <text
       xml:space="preserve"
       style="font-size:63.9822px;line-height:1.25;font-family:'Caviar Dreams';-inkscape-font-specification:'Caviar Dreams';letter-spacing:0px;word-spacing:0px;fill:#ff5c02;fill-opacity:1;stroke-width:0.999994"
       x="53.606178"
       y="638.25299"
       id="texto_nomeempresa"><tspan
         sodipodi:role="line"
         id="tspan2445-0"
         x="53.606178"
         y="638.25299"
         style="font-style:normal;font-variant:normal;font-weight:normal;font-stretch:normal;font-size:63.9822px;font-family:Dunkin;-inkscape-font-specification:Dunkin;stroke-width:0.999994">ACADEMIA SANTOS</tspan></text>
    <text
       xml:space="preserve"
       style="font-size:26.9475px;line-height:1.25;font-family:'Caviar Dreams';-inkscape-font-specification:'Caviar Dreams';letter-spacing:-0.61644px;word-spacing:0px;fill:#ff5c02;fill-opacity:1;stroke-width:0.999998"
       x="131.88477"
       y="772.46936"
       id="texto_endereco"><tspan
         sodipodi:role="line"
         id="tspan2445-0-5"
         x="131.88477"
         y="772.46936"
         style="font-style:normal;font-variant:normal;font-weight:normal;font-stretch:normal;font-size:26.9475px;font-family:'LEMON MILK';-inkscape-font-specification:'LEMON MILK';stroke-width:0.999998">Rua Murchi de Honsi 305 - Rio Preto</tspan></text>
  </g>
</svg>
