<?xml version="1.0" encoding="UTF-8" standalone="no"?>
<svg
   xmlns:dc="http://purl.org/dc/elements/1.1/"
   xmlns:cc="http://creativecommons.org/ns#"
   xmlns:rdf="http://www.w3.org/1999/02/22-rdf-syntax-ns#"
   xmlns:svg="http://www.w3.org/2000/svg"
   xmlns="http://www.w3.org/2000/svg"
   xmlns:sodipodi="http://sodipodi.sourceforge.net/DTD/sodipodi-0.dtd"
   xmlns:inkscape="http://www.inkscape.org/namespaces/inkscape"
   width="800"
   height="800"
   viewBox="0 0 800.00001 800.00001"
   version="1.1"
   id="svg8"
   inkscape:version="1.0.2 (1.0.2+r75+1)"
   sodipodi:docname="arte1.svg"
   inkscape:export-filename="/home/gustavu92/Desktop/rapiart_app/flask_app/static/modelos/arte1/camada1/arte1_camada1.png"
   inkscape:export-xdpi="96"
   inkscape:export-ydpi="96">
  <defs
     id="defs2" />
  <sodipodi:namedview
     id="base"
     pagecolor="#ffffff"
     bordercolor="#666666"
     borderopacity="1.0"
     inkscape:pageopacity="0.0"
     inkscape:pageshadow="2"
     inkscape:zoom="0.7"
     inkscape:cx="422.27916"
     inkscape:cy="167.58189"
     inkscape:document-units="px"
     inkscape:current-layer="layer1"
     inkscape:document-rotation="0"
     showgrid="false"
     units="px"
     inkscape:window-width="1608"
     inkscape:window-height="986"
     inkscape:window-x="72"
     inkscape:window-y="27"
     inkscape:window-maximized="1"
     inkscape:snap-page="true"
     inkscape:snap-global="false" />
  <metadata
     id="metadata5">
    <rdf:RDF>
      <cc:Work
         rdf:about="">
        <dc:format>image/svg+xml</dc:format>
        <dc:type
           rdf:resource="http://purl.org/dc/dcmitype/StillImage" />
        <dc:title />
      </cc:Work>
    </rdf:RDF>
  </metadata>
  <g
     inkscape:label="Layer 1"
     inkscape:groupmode="layer"
     id="layer1">
    <rect
       style="fill:#008000;stroke:none;stroke-width:1.2327"
       id="caixa_imagem_logo"
       width="85.250725"
       height="82.163658"
       x="698.58331"
       y="710.28827" />
    <rect
       style="fill:#ffff00;stroke:none;stroke-width:0.942348"
       id="caixa_texto_preconormal"
       width="160.38441"
       height="49.809013"
       x="135.87631"
       y="308.39359" />
    <rect
       style="fill:#008000;stroke-width:5.05878"
       id="caixa_imagem_produto"
       width="592.84302"
       height="388.32816"
       x="103.57848"
       y="400.00003" />
    <rect
       style="fill:#008000;fill-opacity:1;stroke:none;stroke-width:1.34366"
       id="caixa_texto_nomeproduto"
       width="715.03705"
       height="50.297409"
       x="49.461929"
       y="58.297634" />
    <rect
       style="fill:#ffff00;stroke:none;stroke-width:2.30014"
       id="caixa_texto_precodesconto"
       width="297.41675"
       height="108.85922"
       x="367.97168"
       y="282.89902" />
    <g
       id="use158"
       style="fill:#000000;fill-opacity:1"
       transform="matrix(0.9876543,0,0,0.98765431,366.76799,256.949)">
      <path
         style="stroke:none;fill:#000000"
         d="m 19.296875,-20.9375 c 0,1.40625 -0.308594,2.789062 -0.921875,4.140625 -0.605469,1.355469 -1.417969,2.574219 -2.4375,3.65625 -1.011719,1.074219 -2.167969,1.960937 -3.46875,2.65625 -1.304688,0.6875 -2.648438,1.070313 -4.03125,1.140625 C 8.414062,-8.875 8.394531,-8.28125 8.375,-7.5625 8.363281,-6.84375 8.316406,-6.09375 8.234375,-5.3125 8.160156,-4.53125 8.050781,-3.75 7.90625,-2.96875 7.769531,-2.1875 7.5625,-1.484375 7.28125,-0.859375 7.007812,-0.234375 6.660156,0.269531 6.234375,0.65625 5.804688,1.050781 5.28125,1.25 4.65625,1.25 3.925781,1.25 3.34375,1.003906 2.90625,0.515625 2.476562,0.0351562 2.15625,-0.539062 1.9375,-1.21875 1.71875,-1.894531 1.566406,-2.601562 1.484375,-3.34375 1.410156,-4.082031 1.359375,-4.710938 1.328125,-5.234375 1.273438,-5.992188 1.242188,-6.738281 1.234375,-7.46875 1.222656,-8.195312 1.21875,-8.9375 1.21875,-9.6875 c 0,-0.34375 0,-0.972656 0,-1.890625 0,-0.925781 0.00391,-1.984375 0.015625,-3.171875 0.00781,-1.1875 0.023437,-2.421875 0.046875,-3.703125 0.03125,-1.289063 0.070312,-2.488281 0.125,-3.59375 0.050781,-1.113281 0.109375,-2.0625 0.171875,-2.84375 0.070313,-0.78125 0.160156,-1.234375 0.265625,-1.359375 0.019531,-0.03125 0.09375,-0.08594 0.21875,-0.171875 0.132812,-0.09375 0.28125,-0.1875 0.4375,-0.28125 0.15625,-0.09375 0.296875,-0.175781 0.421875,-0.25 0.132813,-0.08203 0.226563,-0.132813 0.28125,-0.15625 1.195313,-0.675781 2.507813,-1.257813 3.9375,-1.75 1.4375,-0.5 2.859375,-0.75 4.265625,-0.75 1.195312,0 2.285156,0.242187 3.265625,0.71875 0.976563,0.480469 1.8125,1.121094 2.5,1.921875 0.6875,0.792969 1.210937,1.714844 1.578125,2.765625 0.363281,1.054687 0.546875,2.140625 0.546875,3.265625 z m -6.75,0.890625 c 0,-0.519531 -0.125,-0.972656 -0.375,-1.359375 C 11.921875,-21.800781 11.507812,-22 10.9375,-22 c -0.492188,0 -0.984375,0.101562 -1.484375,0.296875 -0.492187,0.199219 -0.945313,0.402344 -1.359375,0.609375 0.070312,0.90625 0.140625,1.792969 0.203125,2.65625 0.070313,0.855469 0.082031,1.742188 0.03125,2.65625 0.414063,-0.207031 0.867187,-0.445312 1.359375,-0.71875 0.5,-0.28125 0.957031,-0.585938 1.375,-0.921875 0.414062,-0.34375 0.765625,-0.726563 1.046875,-1.15625 0.289063,-0.425781 0.4375,-0.914063 0.4375,-1.46875 z m 0,0"
         id="path960" />
    </g>
    <g
       id="use162"
       style="fill:#000000;fill-opacity:1"
       transform="matrix(0.9876543,0,0,0.98765431,385.59331,256.949)">
      <path
         style="stroke:none;fill:#000000"
         d="M 8.59375,1.140625 C 7.269531,1.140625 6.113281,0.785156 5.125,0.078125 4.132812,-0.628906 3.300781,-1.53125 2.625,-2.625 1.945312,-3.71875 1.4375,-4.929688 1.09375,-6.265625 c -0.335938,-1.34375 -0.5,-2.664063 -0.5,-3.96875 0,-1.382813 0.164062,-2.8125 0.5,-4.28125 0.34375,-1.46875 0.863281,-2.804687 1.5625,-4.015625 0.707031,-1.21875 1.609375,-2.207031 2.703125,-2.96875 1.09375,-0.769531 2.394531,-1.15625 3.90625,-1.15625 1.457031,0 2.695313,0.398438 3.71875,1.1875 1.03125,0.792969 1.859375,1.78125 2.484375,2.96875 0.625,1.1875 1.066406,2.484375 1.328125,3.890625 0.257813,1.40625 0.351563,2.734375 0.28125,3.984375 -0.08594,1.375 -0.304687,2.765625 -0.65625,4.171875 -0.34375,1.40625 -0.855469,2.671875 -1.53125,3.796875 -0.679687,1.117188 -1.539063,2.027344 -2.578125,2.734375 -1.042969,0.707031 -2.28125,1.0625 -3.71875,1.0625 z M 8.984375,-16.53125 c -0.386719,0 -0.730469,0.210938 -1.03125,0.625 -0.304687,0.417969 -0.554687,0.929688 -0.75,1.53125 -0.1875,0.59375 -0.335937,1.226562 -0.4375,1.890625 -0.105469,0.667969 -0.15625,1.246094 -0.15625,1.734375 0,0.625 0.054687,1.304688 0.171875,2.03125 0.113281,0.730469 0.273438,1.402344 0.484375,2.015625 0.207031,0.617187 0.460937,1.125 0.765625,1.53125 0.300781,0.398437 0.644531,0.59375 1.03125,0.59375 0.414062,0 0.773438,-0.191406 1.078125,-0.578125 0.300781,-0.394531 0.539063,-0.890625 0.71875,-1.484375 0.1875,-0.601563 0.316406,-1.257813 0.390625,-1.96875 0.08203,-0.71875 0.125,-1.390625 0.125,-2.015625 0,-0.570312 -0.05469,-1.203125 -0.15625,-1.890625 -0.105469,-0.695313 -0.257812,-1.34375 -0.453125,-1.9375 -0.199219,-0.601563 -0.449219,-1.097656 -0.75,-1.484375 -0.292969,-0.394531 -0.636719,-0.59375 -1.03125,-0.59375 z m 0,0"
         id="path956" />
    </g>
    <g
       id="use166"
       style="fill:#000000;fill-opacity:1"
       transform="matrix(0.9876543,0,0,0.98765431,403.26132,256.949)">
      <path
         style="stroke:none;fill:#000000"
         d="m 14.734375,-14.609375 c -0.367187,0.02344 -0.679687,-0.0078 -0.9375,-0.09375 -0.261719,-0.09375 -0.523437,-0.191406 -0.78125,-0.296875 -0.242187,-0.101562 -0.480469,-0.203125 -0.71875,-0.296875 -0.230469,-0.09375 -0.484375,-0.125 -0.765625,-0.09375 -0.523438,0.02344 -0.984375,0.164063 -1.390625,0.421875 -0.40625,0.261719 -0.773437,0.589844 -1.09375,0.984375 -0.324219,0.386719 -0.605469,0.824219 -0.84375,1.3125 -0.230469,0.480469 -0.414063,0.953125 -0.546875,1.421875 -0.074219,0.3125 -0.132812,0.789062 -0.171875,1.421875 -0.042969,0.636719 -0.0625,1.320313 -0.0625,2.046875 -0.023437,0.761719 -0.03125,1.480469 -0.03125,2.15625 0,0.679688 -0.027344,1.210938 -0.078125,1.59375 C 7.28125,-3.613281 7.210938,-3.125 7.109375,-2.5625 7.003906,-2 6.84375,-1.46875 6.625,-0.96875 6.40625,-0.476562 6.113281,-0.0664062 5.75,0.265625 5.382812,0.609375 4.914062,0.78125 4.34375,0.78125 3.894531,0.78125 3.507812,0.648438 3.1875,0.390625 2.863281,0.128906 2.585938,-0.210938 2.359375,-0.640625 2.140625,-1.078125 1.957031,-1.582031 1.8125,-2.15625 1.675781,-2.726562 1.566406,-3.3125 1.484375,-3.90625 1.410156,-4.53125 1.351562,-5.15625 1.3125,-5.78125 1.269531,-6.40625 1.242188,-7 1.234375,-7.5625 c -0.011719,-0.5625 -0.011719,-1.078125 0,-1.546875 0.00781,-0.46875 0.015625,-0.84375 0.015625,-1.125 -0.023438,-0.914063 -0.070312,-1.832031 -0.140625,-2.75 -0.0625,-0.925781 -0.09375,-1.847656 -0.09375,-2.765625 0,-0.570312 0.023437,-1.207031 0.078125,-1.90625 0.050781,-0.707031 0.191406,-1.363281 0.421875,-1.96875 0.238281,-0.613281 0.585937,-1.128906 1.046875,-1.546875 0.457031,-0.414063 1.085938,-0.625 1.890625,-0.625 0.445313,0 0.828125,0.148437 1.140625,0.4375 0.3125,0.28125 0.5625,0.632813 0.75,1.046875 0.195312,0.417969 0.347656,0.859375 0.453125,1.328125 0.101563,0.46875 0.171875,0.898437 0.203125,1.28125 0.625,-1.007813 1.328125,-1.832031 2.109375,-2.46875 0.78125,-0.644531 1.796875,-0.992187 3.046875,-1.046875 0.625,-0.01953 1.238281,0.04297 1.84375,0.1875 0.613281,0.136719 1.175781,0.371094 1.6875,0.703125 0.507812,0.324219 0.925781,0.746094 1.25,1.265625 0.320312,0.523438 0.5,1.132812 0.53125,1.828125 0.05078,0.835937 -0.199219,1.476563 -0.75,1.921875 -0.542969,0.4375 -1.203125,0.671875 -1.984375,0.703125 z m 0,0"
         id="path952" />
    </g>
    <g
       id="use170"
       style="fill:#000000;fill-opacity:1"
       transform="matrix(0.9876543,0,0,0.98765431,419.92636,256.949)">
      <path
         style="stroke:none;fill:#000000"
         d="m 6.84375,-11.453125 c 0,0.34375 -0.078125,0.652344 -0.234375,0.921875 -0.15625,0.273438 -0.359375,0.5 -0.609375,0.6875 -0.25,0.179688 -0.527344,0.320312 -0.828125,0.421875 -0.292969,0.105469 -0.59375,0.15625 -0.90625,0.15625 -0.398437,0 -0.824219,-0.066406 -1.28125,-0.203125 -0.449219,-0.144531 -0.867187,-0.34375 -1.25,-0.59375 -0.375,-0.25 -0.695313,-0.546875 -0.953125,-0.890625 -0.261719,-0.351563 -0.390625,-0.753906 -0.390625,-1.203125 0,-0.726562 0.296875,-1.265625 0.890625,-1.609375 0.601562,-0.351563 1.21875,-0.53125 1.84375,-0.53125 0.394531,0 0.804688,0.07031 1.234375,0.203125 0.425781,0.125 0.828125,0.3125 1.203125,0.5625 0.382812,0.242188 0.691406,0.539062 0.921875,0.890625 0.238281,0.355469 0.359375,0.75 0.359375,1.1875 z m 0,9.578125 c 0,0.335938 -0.078125,0.640625 -0.234375,0.921875 C 6.453125,-0.679688 6.25,-0.453125 6,-0.265625 5.75,-0.0859375 5.472656,0.0507812 5.171875,0.15625 4.878906,0.257812 4.578125,0.3125 4.265625,0.3125 3.867188,0.3125 3.441406,0.238281 2.984375,0.09375 2.535156,-0.0507812 2.117188,-0.253906 1.734375,-0.515625 1.359375,-0.773438 1.039062,-1.078125 0.78125,-1.421875 0.519531,-1.773438 0.390625,-2.175781 0.390625,-2.625 c 0,-0.695312 0.296875,-1.222656 0.890625,-1.578125 0.601562,-0.351563 1.21875,-0.53125 1.84375,-0.53125 0.394531,0 0.804688,0.070313 1.234375,0.203125 0.425781,0.125 0.828125,0.3125 1.203125,0.5625 0.382812,0.25 0.691406,0.554688 0.921875,0.90625 0.238281,0.34375 0.359375,0.742188 0.359375,1.1875 z m 0,0"
         id="path944" />
    </g>
    <g
       id="use174"
       style="fill:#000000;fill-opacity:1"
       transform="matrix(0.9876543,0,0,0.98765431,134.67265,284.80958)">
      <path
         style="stroke:none;fill:#000000"
         d="m 21.296875,-17.578125 c 0,2.292969 -0.46875,4.5 -1.40625,6.625 -0.9375,2.117187 -2.199219,3.996094 -3.78125,5.640625 -1.574219,1.636719 -3.40625,2.945312 -5.5,3.921875 -2.09375,0.980469 -4.304687,1.46875 -6.625,1.46875 H 3.90625 C 3.4375,0.078125 3.050781,-0.132812 2.75,-0.5625 2.457031,-1 2.207031,-1.539062 2,-2.1875 1.789062,-2.84375 1.632812,-3.570312 1.53125,-4.375 1.425781,-5.1875 1.347656,-5.972656 1.296875,-6.734375 1.242188,-7.503906 1.21875,-8.195312 1.21875,-8.8125 c 0,-0.613281 0,-1.078125 0,-1.390625 0,-0.882813 0.00781,-1.757813 0.03125,-2.625 0.03125,-0.875 0.070312,-1.753906 0.125,-2.640625 0,-0.289062 0.015625,-0.710938 0.046875,-1.265625 0.039063,-0.5625 0.085937,-1.191406 0.140625,-1.890625 0.050781,-0.707031 0.113281,-1.445312 0.1875,-2.21875 0.082031,-0.769531 0.171875,-1.484375 0.265625,-2.140625 0.09375,-0.664063 0.179687,-1.253906 0.265625,-1.765625 0.09375,-0.507812 0.207031,-0.851562 0.34375,-1.03125 0.332031,-0.570312 0.847656,-1.078125 1.546875,-1.515625 0.707031,-0.445313 1.472656,-0.8125 2.296875,-1.09375 0.820312,-0.289063 1.65625,-0.507813 2.5,-0.65625 0.84375,-0.144531 1.578125,-0.21875 2.203125,-0.21875 1.71875,0 3.207031,0.324219 4.46875,0.96875 1.269531,0.636719 2.328125,1.496094 3.171875,2.578125 0.84375,1.074219 1.46875,2.3125 1.875,3.71875 0.40625,1.40625 0.609375,2.882812 0.609375,4.421875 z m -6.5625,1.125 c 0,-0.570313 -0.105469,-1.15625 -0.3125,-1.75 -0.210937,-0.601563 -0.507813,-1.148437 -0.890625,-1.640625 -0.375,-0.5 -0.828125,-0.894531 -1.359375,-1.1875 -0.53125,-0.300781 -1.125,-0.453125 -1.78125,-0.453125 -0.542969,0 -1.101563,0.132813 -1.671875,0.390625 -0.136719,0.07422 -0.257812,0.3125 -0.359375,0.71875 -0.105469,0.40625 -0.1875,0.898438 -0.25,1.46875 -0.0625,0.574219 -0.121094,1.199219 -0.171875,1.875 -0.054688,0.679688 -0.089844,1.324219 -0.109375,1.9375 -0.011719,0.605469 -0.023437,1.140625 -0.03125,1.609375 -0.011719,0.46875 -0.015625,0.78125 -0.015625,0.9375 0,0.261719 0,0.648437 0,1.15625 0,0.511719 0.015625,1.015625 0.046875,1.515625 0.039063,0.492188 0.085937,0.917969 0.140625,1.28125 0.050781,0.367188 0.144531,0.546875 0.28125,0.546875 0.78125,0 1.550781,-0.304687 2.3125,-0.921875 0.769531,-0.613281 1.46875,-1.363281 2.09375,-2.25 0.625,-0.882812 1.125,-1.804688 1.5,-2.765625 0.382812,-0.96875 0.578125,-1.789063 0.578125,-2.46875 z m 0,0"
         id="path940" />
    </g>
    <g
       id="use178"
       style="fill:#000000;fill-opacity:1"
       transform="matrix(0.9876543,0,0,0.98765431,156.27548,284.80958)">
      <path
         style="stroke:none;fill:#000000"
         d="m 17.546875,-6.953125 c 0,0.886719 -0.28125,1.75 -0.84375,2.59375 -0.5625,0.84375 -1.265625,1.601563 -2.109375,2.265625 -0.84375,0.667969 -1.75,1.203125 -2.71875,1.609375 C 10.914062,-0.078125 10.03125,0.125 9.21875,0.125 7.84375,0.125 6.613281,-0.21875 5.53125,-0.90625 4.445312,-1.601562 3.539062,-2.484375 2.8125,-3.546875 2.082031,-4.617188 1.53125,-5.800781 1.15625,-7.09375 c -0.375,-1.289062 -0.5625,-2.546875 -0.5625,-3.765625 0,-1.300781 0.179688,-2.691406 0.546875,-4.171875 0.363281,-1.488281 0.914063,-2.859375 1.65625,-4.109375 0.738281,-1.25 1.675781,-2.289063 2.8125,-3.125 1.132813,-0.832031 2.484375,-1.25 4.046875,-1.25 0.882812,0 1.726562,0.152344 2.53125,0.453125 0.8125,0.292969 1.515625,0.714844 2.109375,1.265625 0.601563,0.542969 1.085937,1.195313 1.453125,1.953125 0.363281,0.75 0.546875,1.59375 0.546875,2.53125 0,1.230469 -0.261719,2.382812 -0.78125,3.453125 -0.523437,1.0625 -1.214844,1.984375 -2.078125,2.765625 -0.855469,0.78125 -1.84375,1.414062 -2.96875,1.890625 -1.117188,0.480469 -2.261719,0.746094 -3.4375,0.796875 0.101562,0.761719 0.410156,1.3125 0.921875,1.65625 0.507813,0.335938 1.113281,0.5 1.8125,0.5 0.519531,0 1.023437,-0.128906 1.515625,-0.390625 0.5,-0.257813 0.984375,-0.550781 1.453125,-0.875 0.46875,-0.332031 0.929687,-0.628906 1.390625,-0.890625 0.457031,-0.257812 0.921875,-0.390625 1.390625,-0.390625 0.519531,0 0.988281,0.171875 1.40625,0.515625 0.414063,0.335938 0.625,0.777344 0.625,1.328125 z M 11.21875,-16.53125 c 0,-0.332031 -0.09375,-0.679688 -0.28125,-1.046875 -0.179688,-0.363281 -0.464844,-0.546875 -0.859375,-0.546875 -0.574219,0 -1.058594,0.152344 -1.453125,0.453125 -0.386719,0.292969 -0.710938,0.667969 -0.96875,1.125 -0.261719,0.460937 -0.464844,0.949219 -0.609375,1.46875 -0.136719,0.523437 -0.21875,1 -0.25,1.4375 0.363281,-0.07031 0.800781,-0.171875 1.3125,-0.296875 0.507813,-0.132812 0.988281,-0.3125 1.4375,-0.53125 0.457031,-0.226562 0.847656,-0.507812 1.171875,-0.84375 0.332031,-0.34375 0.5,-0.75 0.5,-1.21875 z m 0,0"
         id="path936" />
    </g>
    <g
       id="use186"
       style="fill:#000000;fill-opacity:1"
       transform="matrix(0.9876543,0,0,0.98765431,183.27902,284.80958)">
      <path
         style="stroke:none;fill:#000000"
         d="m 6.84375,-11.453125 c 0,0.34375 -0.078125,0.652344 -0.234375,0.921875 -0.15625,0.273438 -0.359375,0.5 -0.609375,0.6875 -0.25,0.179688 -0.527344,0.320312 -0.828125,0.421875 -0.292969,0.105469 -0.59375,0.15625 -0.90625,0.15625 -0.398437,0 -0.824219,-0.066406 -1.28125,-0.203125 -0.449219,-0.144531 -0.867187,-0.34375 -1.25,-0.59375 -0.375,-0.25 -0.695313,-0.546875 -0.953125,-0.890625 -0.261719,-0.351563 -0.390625,-0.753906 -0.390625,-1.203125 0,-0.726562 0.296875,-1.265625 0.890625,-1.609375 0.601562,-0.351563 1.21875,-0.53125 1.84375,-0.53125 0.394531,0 0.804688,0.07031 1.234375,0.203125 0.425781,0.125 0.828125,0.3125 1.203125,0.5625 0.382812,0.242188 0.691406,0.539062 0.921875,0.890625 0.238281,0.355469 0.359375,0.75 0.359375,1.1875 z m 0,9.578125 c 0,0.335938 -0.078125,0.640625 -0.234375,0.921875 C 6.453125,-0.679688 6.25,-0.453125 6,-0.265625 5.75,-0.0859375 5.472656,0.0507812 5.171875,0.15625 4.878906,0.257812 4.578125,0.3125 4.265625,0.3125 3.867188,0.3125 3.441406,0.238281 2.984375,0.09375 2.535156,-0.0507812 2.117188,-0.253906 1.734375,-0.515625 1.359375,-0.773438 1.039062,-1.078125 0.78125,-1.421875 0.519531,-1.773438 0.390625,-2.175781 0.390625,-2.625 c 0,-0.695312 0.296875,-1.222656 0.890625,-1.578125 0.601562,-0.351563 1.21875,-0.53125 1.84375,-0.53125 0.394531,0 0.804688,0.070313 1.234375,0.203125 0.425781,0.125 0.828125,0.3125 1.203125,0.5625 0.382812,0.25 0.691406,0.554688 0.921875,0.90625 0.238281,0.34375 0.359375,0.742188 0.359375,1.1875 z m 0,0"
         id="path948" />
    </g>
    <text
       xml:space="preserve"
       style="font-style:normal;font-weight:normal;font-size:37.0655px;line-height:1.25;font-family:sans-serif;letter-spacing:0px;word-spacing:0px;fill:#000000;fill-opacity:1;stroke:none;stroke-width:0.739104"
       x="166.92432"
       y="94.421875"
       id="texto_nomeproduto"
       transform="scale(1.0000497,0.9999503)"><title
         id="title967">titulo_produto</title><tspan
         sodipodi:role="line"
         id="tspan1440"
         x="166.92432"
         y="94.421875"
         style="font-style:normal;font-variant:normal;font-weight:normal;font-stretch:normal;font-size:37.0655px;font-family:Poppins;-inkscape-font-specification:Poppins;fill:#ffffff;stroke-width:0.739104">TITULO DO PRODUTO AQUI</tspan></text>
    <text
       xml:space="preserve"
       style="font-style:normal;font-weight:normal;font-size:44.127px;line-height:1.25;font-family:sans-serif;letter-spacing:0px;word-spacing:0px;fill:#000000;fill-opacity:1;stroke:none;stroke-width:0.827386"
       x="134.53377"
       y="342.1936"
       id="texto_preconormal"
       transform="scale(1.0000497,0.99995031)"><tspan
         sodipodi:role="line"
         id="tspan1471-2"
         x="134.53377"
         y="342.1936"
         style="font-style:normal;font-variant:normal;font-weight:normal;font-stretch:normal;font-size:44.127px;font-family:Chewy;-inkscape-font-specification:Chewy;fill:#ffffff;stroke-width:0.827386">R$99,99</tspan></text>
    <rect
       style="fill:#008000;stroke-width:0.843"
       id="caixa_texto_porcentagemdesconto"
       width="117.46848"
       height="46.669224"
       x="457.79883"
       y="158.87665" />
    <g
       id="g2221"
       transform="matrix(0.74074074,0,0,0.74074075,-1.00508,18.285241)">
      <g
         id="use78"
         style="fill:#14f5c5;fill-opacity:1"
         transform="matrix(1.3333333,0,0,1.3333333,107.73361,251.37302)">
        <path
           style="stroke:none"
           d="m 15.75,-8.3125 h 4.859375 c 4.175781,0 7.457031,-1.28125 9.84375,-3.84375 2.394531,-2.5625 3.59375,-5.992188 3.59375,-10.296875 0,-4.3125 -1.199219,-7.75 -3.59375,-10.3125 -2.386719,-2.5625 -5.667969,-3.84375 -9.84375,-3.84375 H 15.75 Z m 4.859375,-36.609375 c 7.164063,0 13.050781,2.078125 17.65625,6.234375 4.613281,4.15625 6.921875,9.554688 6.921875,16.1875 0,6.636719 -2.308594,12.046875 -6.921875,16.234375 C 33.660156,-2.085938 27.773438,0 20.609375,0 h -15.8125 v -44.921875 z m 0,0"
           id="path1004" />
      </g>
      <g
         id="use82"
         style="fill:#14f5c5;fill-opacity:1"
         transform="matrix(1.3333333,0,0,1.3333333,169.93774,251.37302)">
        <path
           style="stroke:none"
           d="m 32,-45.0625 v 8.328125 H 15.75 v 9.65625 H 30.078125 V -18.75 H 15.75 V -8.3125 H 32 V 0 H 4.796875 v -45.0625 z m 0,0"
           id="path1000" />
      </g>
      <g
         id="use86"
         style="fill:#14f5c5;fill-opacity:1"
         transform="matrix(1.3333333,0,0,1.3333333,217.89208,251.37302)">
        <path
           style="stroke:none"
           d="m 20.03125,-36.921875 c -1.367188,0 -2.484375,0.367187 -3.359375,1.09375 -0.875,0.71875 -1.3125,1.761719 -1.3125,3.125 0,1.367187 0.40625,2.464844 1.21875,3.296875 0.8125,0.835938 1.867187,1.476562 3.171875,1.921875 1.300781,0.449219 2.75,0.875 4.34375,1.28125 1.601562,0.40625 3.191406,0.898437 4.765625,1.46875 1.582031,0.574219 3.023437,1.289063 4.328125,2.140625 1.300781,0.855469 2.351562,2.0625 3.15625,3.625 0.8125,1.554688 1.21875,3.417969 1.21875,5.59375 0,3.792969 -1.546875,7.046875 -4.640625,9.765625 -3.09375,2.710937 -7.167969,4.0625 -12.21875,4.0625 -5.054687,0 -9.125,-1.210937 -12.21875,-3.640625 C 5.390625,-5.625 3.84375,-9.082031 3.84375,-13.5625 h 11.640625 c 0.300781,3.585938 2.132813,5.375 5.5,5.375 1.582031,0 2.820313,-0.414062 3.71875,-1.25 0.894531,-0.832031 1.34375,-1.890625 1.34375,-3.171875 0,-1.28125 -0.40625,-2.320313 -1.21875,-3.125 -0.8125,-0.8125 -1.871094,-1.453125 -3.171875,-1.921875 -1.292969,-0.476562 -2.742188,-0.914062 -4.34375,-1.3125 -1.605469,-0.40625 -3.199219,-0.90625 -4.78125,-1.5 -1.574219,-0.601562 -3.011719,-1.320312 -4.3125,-2.15625 -1.304688,-0.832031 -2.359375,-2.023438 -3.171875,-3.578125 -0.804687,-1.5625 -1.203125,-3.410156 -1.203125,-5.546875 0,-4.175781 1.554688,-7.519531 4.671875,-10.03125 3.113281,-2.519531 7.09375,-3.78125 11.9375,-3.78125 4.84375,0 8.753906,1.101562 11.734375,3.296875 2.988281,2.199219 4.546875,5.664063 4.671875,10.390625 h -11.90625 c -0.167969,-1.613281 -0.6875,-2.859375 -1.5625,-3.734375 -0.875,-0.875 -1.996094,-1.3125 -3.359375,-1.3125 z m 0,0"
           id="path996" />
      </g>
      <g
         id="use90"
         style="fill:#14f5c5;fill-opacity:1"
         transform="matrix(1.3333333,0,0,1.3333333,272.24603,251.37302)">
        <path
           style="stroke:none"
           d="m 8.859375,-6.109375 c -4.460937,-4.332031 -6.6875,-9.828125 -6.6875,-16.484375 0,-6.65625 2.226563,-12.144531 6.6875,-16.46875 4.457031,-4.332031 9.910156,-6.5 16.359375,-6.5 4.988281,0 9.425781,1.324219 13.3125,3.96875 3.882812,2.648438 6.59375,6.3125 8.125,11 h -13.0625 c -1.699219,-3.28125 -4.429688,-4.921875 -8.1875,-4.921875 -3.75,0 -6.703125,1.171875 -8.859375,3.515625 -2.15625,2.34375 -3.234375,5.480469 -3.234375,9.40625 0,3.929688 1.078125,7.070312 3.234375,9.421875 2.15625,2.34375 5.109375,3.515625 8.859375,3.515625 3.757812,0 6.488281,-1.644531 8.1875,-4.9375 h 13.0625 c -1.53125,4.699219 -4.242188,8.371094 -8.125,11.015625 -3.886719,2.648437 -8.324219,3.96875 -13.3125,3.96875 -6.449219,0 -11.902344,-2.164063 -16.359375,-6.5 z m 0,0"
           id="path992" />
      </g>
      <g
         id="use94"
         style="fill:#14f5c5;fill-opacity:1"
         transform="matrix(1.3333333,0,0,1.3333333,336.58337,251.37302)">
        <path
           style="stroke:none"
           d="m 33.828125,-13.171875 c 2.15625,-2.351563 3.234375,-5.492187 3.234375,-9.421875 0,-3.925781 -1.078125,-7.0625 -3.234375,-9.40625 -2.15625,-2.34375 -5.039063,-3.515625 -8.640625,-3.515625 -3.605469,0 -6.484375,1.171875 -8.640625,3.515625 -2.15625,2.34375 -3.234375,5.480469 -3.234375,9.40625 0,3.929688 1.078125,7.070312 3.234375,9.421875 2.15625,2.34375 5.035156,3.515625 8.640625,3.515625 3.601562,0 6.484375,-1.171875 8.640625,-3.515625 z m -24.96875,7.09375 c -4.460937,-4.351563 -6.6875,-9.859375 -6.6875,-16.515625 0,-6.65625 2.226563,-12.144531 6.6875,-16.46875 4.457031,-4.332031 9.914063,-6.5 16.375,-6.5 6.46875,0 11.910156,2.167969 16.328125,6.5 4.414062,4.324219 6.625,9.8125 6.625,16.46875 0,6.65625 -2.21875,12.164062 -6.65625,16.515625 -4.4375,4.355469 -9.882812,6.53125 -16.328125,6.53125 -6.4375,0 -11.886719,-2.175781 -16.34375,-6.53125 z m 0,0"
           id="path980" />
      </g>
      <g
         id="use98"
         style="fill:#14f5c5;fill-opacity:1"
         transform="matrix(1.3333333,0,0,1.3333333,402.96856,251.37302)">
        <path
           style="stroke:none"
           d="m 34.046875,-45.0625 h 10.9375 V 0 h -10.9375 L 15.75,-28.359375 V 0 H 4.796875 V -45.0625 H 15.75 l 18.296875,28.359375 z m 0,0"
           id="path976" />
      </g>
      <g
         id="use102"
         style="fill:#14f5c5;fill-opacity:1"
         transform="matrix(1.3333333,0,0,1.3333333,468.5005,251.37302)">
        <path
           style="stroke:none"
           d="m 1.734375,-36.609375 v -8.3125 H 37.1875 v 8.3125 H 24.890625 V 0 h -10.9375 v -36.609375 z m 0,0"
           id="path972" />
      </g>
      <g
         id="use106"
         style="fill:#14f5c5;fill-opacity:1"
         transform="matrix(1.3333333,0,0,1.3333333,519.52666,251.37302)">
        <path
           style="stroke:none"
           d="m 33.828125,-13.171875 c 2.15625,-2.351563 3.234375,-5.492187 3.234375,-9.421875 0,-3.925781 -1.078125,-7.0625 -3.234375,-9.40625 -2.15625,-2.34375 -5.039063,-3.515625 -8.640625,-3.515625 -3.605469,0 -6.484375,1.171875 -8.640625,3.515625 -2.15625,2.34375 -3.234375,5.480469 -3.234375,9.40625 0,3.929688 1.078125,7.070312 3.234375,9.421875 2.15625,2.34375 5.035156,3.515625 8.640625,3.515625 3.601562,0 6.484375,-1.171875 8.640625,-3.515625 z m -24.96875,7.09375 c -4.460937,-4.351563 -6.6875,-9.859375 -6.6875,-16.515625 0,-6.65625 2.226563,-12.144531 6.6875,-16.46875 4.457031,-4.332031 9.914063,-6.5 16.375,-6.5 6.46875,0 11.910156,2.167969 16.328125,6.5 4.414062,4.324219 6.625,9.8125 6.625,16.46875 0,6.65625 -2.21875,12.164062 -6.65625,16.515625 -4.4375,4.355469 -9.882812,6.53125 -16.328125,6.53125 -6.4375,0 -11.886719,-2.175781 -16.34375,-6.53125 z m 0,0"
           id="path984" />
      </g>
    </g>
    <g
       id="g2226"
       transform="matrix(0.74074074,0,0,0.74074075,-1.00507,18.285241)">
      <g
         id="use146"
         style="fill:#ee3dc7;fill-opacity:1"
         transform="matrix(1.3333333,0,0,1.3333333,808.59298,251.37302)">
        <path
           style="stroke:none"
           d="m 33.828125,-13.171875 c 2.15625,-2.351563 3.234375,-5.492187 3.234375,-9.421875 0,-3.925781 -1.078125,-7.0625 -3.234375,-9.40625 -2.15625,-2.34375 -5.039063,-3.515625 -8.640625,-3.515625 -3.605469,0 -6.484375,1.171875 -8.640625,3.515625 -2.15625,2.34375 -3.234375,5.480469 -3.234375,9.40625 0,3.929688 1.078125,7.070312 3.234375,9.421875 2.15625,2.34375 5.035156,3.515625 8.640625,3.515625 3.601562,0 6.484375,-1.171875 8.640625,-3.515625 z m -24.96875,7.09375 c -4.460937,-4.351563 -6.6875,-9.859375 -6.6875,-16.515625 0,-6.65625 2.226563,-12.144531 6.6875,-16.46875 4.457031,-4.332031 9.914063,-6.5 16.375,-6.5 6.46875,0 11.910156,2.167969 16.328125,6.5 4.414062,4.324219 6.625,9.8125 6.625,16.46875 0,6.65625 -2.21875,12.164062 -6.65625,16.515625 -4.4375,4.355469 -9.882812,6.53125 -16.328125,6.53125 -6.4375,0 -11.886719,-2.175781 -16.34375,-6.53125 z m 0,0"
           id="path988" />
      </g>
      <g
         id="use150"
         style="fill:#ee3dc7;fill-opacity:1"
         transform="matrix(1.3333333,0,0,1.3333333,874.97815,251.37302)">
        <path
           style="stroke:none"
           d="m 4.796875,0 v -44.921875 h 29.25 v 8.3125 H 15.75 v 9.671875 h 13.6875 v 8.3125 H 15.75 V 0 Z m 0,0"
           id="path964" />
      </g>
      <g
         id="use154"
         style="fill:#ee3dc7;fill-opacity:1"
         transform="matrix(1.3333333,0,0,1.3333333,923.18843,251.37302)">
        <path
           style="stroke:none"
           d="m 4.796875,0 v -44.921875 h 29.25 v 8.3125 H 15.75 v 9.671875 h 13.6875 v 8.3125 H 15.75 V 0 Z m 0,0"
           id="path968" />
      </g>
    </g>
    <text
       xml:space="preserve"
       style="font-style:normal;font-variant:normal;font-weight:normal;font-stretch:normal;font-size:61.1379px;line-height:1.25;font-family:Chewy;-inkscape-font-specification:Chewy;letter-spacing:0px;word-spacing:0px;fill:#ee3dc7;fill-opacity:1;stroke:none;stroke-width:1.59162"
       x="457.29547"
       y="204.16878"
       id="texto_porcentagemdesconto"
       transform="scale(1.0000497,0.9999503)"><tspan
         sodipodi:role="line"
         id="tspan1235-2"
         x="457.29547"
         y="204.16878"
         style="font-style:normal;font-variant:normal;font-weight:normal;font-stretch:normal;font-size:61.1379px;font-family:Poppins;-inkscape-font-specification:Poppins;fill:#ee3dc7;fill-opacity:1;stroke-width:1.59162">77%</tspan></text>
    <text
       xml:space="preserve"
       style="font-style:normal;font-weight:normal;font-size:120.644px;line-height:1.25;font-family:sans-serif;letter-spacing:0px;word-spacing:0px;fill:#000000;fill-opacity:1;stroke:none;stroke-width:2.26208"
       x="364.30106"
       y="375.28149"
       id="texto_precodesconto"
       transform="scale(1.0000497,0.99995031)"><tspan
         sodipodi:role="line"
         id="tspan1471-2-0"
         x="364.30106"
         y="375.28149"
         style="font-style:normal;font-variant:normal;font-weight:normal;font-stretch:normal;font-size:120.644px;font-family:Chewy;-inkscape-font-specification:Chewy;fill:#ffffff;stroke-width:2.26208">R$139</tspan></text>
  </g>
</svg>
